<svg viewBox="0 0 500 500" xmlns="http://www.w3.org/2000/svg">
  <defs>
    <style>
      .outer-text { font-size: 11px; fill: #8B6914; font-weight: bold; text-anchor: middle; dominant-baseline: middle; }
      .inner-text { font-size: 12px; font-weight: 800; fill: #996515; text-anchor: middle; dominant-baseline: middle; stroke: #FFF9E6; stroke-width: 3; paint-order: stroke; }
      .cardinal-text { font-size: 18px; fill: #B8860B; font-weight: bold; text-anchor: middle; dominant-baseline: middle; stroke: #FFFEF0; stroke-width: 3; paint-order: stroke; }
    </style>
    
    <radialGradient id="bgGradient" cx="50%" cy="50%" r="50%">
      <stop offset="0%" style="stop-color:#FFFEF9;stop-opacity:1" />
      <stop offset="100%" style="stop-color:#FFF5E1;stop-opacity:1" />
    </radialGradient>
    
    <linearGradient id="goldGrad" x1="0%" y1="0%" x2="100%" y2="100%">
      <stop offset="0%" style="stop-color:#D4AF37;stop-opacity:1" />
      <stop offset="50%" style="stop-color:#DAA520;stop-opacity:1" />
      <stop offset="100%" style="stop-color:#B8860B;stop-opacity:1" />
    </linearGradient>
    
    <linearGradient id="needleGrad" x1="0%" y1="0%" x2="0%" y2="100%">
      <stop offset="0%" style="stop-color:#FFD700;stop-opacity:1" />
      <stop offset="50%" style="stop-color:#FFA500;stop-opacity:1" />
      <stop offset="100%" style="stop-color:#FF8C00;stop-opacity:1" />
    </linearGradient>
    
    <filter id="dropShadow">
      <feGaussianBlur in="SourceAlpha" stdDeviation="3"/>
      <feOffset dx="0" dy="2" result="offsetblur"/>
      <feComponentTransfer>
        <feFuncA type="linear" slope="0.3"/>
      </feComponentTransfer>
      <feMerge>
        <feMergeNode/>
        <feMergeNode in="SourceGraphic"/>
      </feMerge>
    </filter>
  </defs>
  
  <!-- Background -->
  <circle cx="250" cy="250" r="245" fill="url(#bgGradient)"/>
  
  <!-- Outer circle -->
  <circle cx="250" cy="250" r="240" stroke="url(#goldGrad)" stroke-width="2" fill="none"/>
  
  <!-- Mid circle -->
  <circle cx="250" cy="250" r="160" stroke="#C9A961" stroke-width="2" fill="none"/>
  
  <!-- Inner circle -->
  <circle cx="250" cy="250" r="100" stroke="#D4AF37" stroke-width="2" fill="none"/>
  
  <!-- Outer ring lines and text -->
  <line x1="250.00" y1="90.00" x2="250.00" y2="10.00" stroke="#C9A961" stroke-width="1.5"/>
  <text x="271.07" y="36.04" class="outer-text" transform="rotate(-84.38, 271.07, 36.04)">Indra</text>
  <line x1="281.21" y1="93.07" x2="296.82" y2="14.61" stroke="#C9A961" stroke-width="1.5"/>
  <text x="312.41" y="44.26" class="outer-text" transform="rotate(-73.13, 312.41, 44.26)">Surya</text>
  <line x1="311.23" y1="102.18" x2="341.84" y2="28.27" stroke="#C9A961" stroke-width="1.5"/>
  <text x="351.35" y="60.39" class="outer-text" transform="rotate(-61.88, 351.35, 60.39)">Satya</text>
  <line x1="338.89" y1="116.96" x2="383.34" y2="50.45" stroke="#C9A961" stroke-width="1.5"/>
  <text x="386.39" y="83.80" class="outer-text" transform="rotate(-50.63, 386.39, 83.80)">Bhasha</text>
  <line x1="363.14" y1="136.86" x2="419.71" y2="80.29" stroke="#C9A961" stroke-width="1.5"/>
  <text x="416.20" y="113.61" class="outer-text" transform="rotate(-39.38, 416.20, 113.61)">Akash</text>
  <line x1="383.04" y1="161.11" x2="449.55" y2="116.66" stroke="#C9A961" stroke-width="1.5"/>
  <text x="439.61" y="148.65" class="outer-text" transform="rotate(-28.13, 439.61, 148.65)">Atul</text>
  <line x1="397.82" y1="188.77" x2="471.73" y2="158.16" stroke="#C9A961" stroke-width="1.5"/>
  <text x="455.74" y="187.59" class="outer-text" transform="rotate(-16.88, 455.74, 187.59)">Pusha</text>
  <line x1="406.93" y1="218.79" x2="485.39" y2="203.18" stroke="#C9A961" stroke-width="1.5"/>
  <text x="463.96" y="228.93" class="outer-text" transform="rotate(-5.63, 463.96, 228.93)">Vitatha</text>
  <line x1="410.00" y1="250.00" x2="490.00" y2="250.00" stroke="#C9A961" stroke-width="1.5"/>
  <text x="463.96" y="271.07" class="outer-text" transform="rotate(185.63, 463.96, 271.07)">Grihrakshit</text>
  <line x1="406.93" y1="281.21" x2="485.39" y2="296.82" stroke="#C9A961" stroke-width="1.5"/>
  <text x="455.74" y="312.41" class="outer-text" transform="rotate(196.88, 455.74, 312.41)">Yama</text>
  <line x1="397.82" y1="311.23" x2="471.73" y2="341.84" stroke="#C9A961" stroke-width="1.5"/>
  <text x="439.61" y="351.35" class="outer-text" transform="rotate(208.13, 439.61, 351.35)">Gandharv</text>
  <line x1="383.04" y1="338.89" x2="449.55" y2="383.34" stroke="#C9A961" stroke-width="1.5"/>
  <text x="416.20" y="386.39" class="outer-text" transform="rotate(219.38, 416.20, 386.39)">Bhringraj</text>
  <line x1="363.14" y1="363.14" x2="419.71" y2="419.71" stroke="#C9A961" stroke-width="1.5"/>
  <text x="386.39" y="416.20" class="outer-text" transform="rotate(230.63, 386.39, 416.20)">Mrita</text>
  <line x1="338.89" y1="383.04" x2="383.34" y2="449.55" stroke="#C9A961" stroke-width="1.5"/>
  <text x="351.35" y="439.61" class="outer-text" transform="rotate(241.88, 351.35, 439.61)">Pitr</text>
  <line x1="311.23" y1="397.82" x2="341.84" y2="471.73" stroke="#C9A961" stroke-width="1.5"/>
  <text x="312.41" y="455.74" class="outer-text" transform="rotate(253.13, 312.41, 455.74)">Dauvrik</text>
  <line x1="281.21" y1="406.93" x2="296.82" y2="485.39" stroke="#C9A961" stroke-width="1.5"/>
  <text x="271.07" y="463.96" class="outer-text" transform="rotate(264.38, 271.07, 463.96)">Sugriva</text>
  <line x1="250.00" y1="410.00" x2="250.00" y2="490.00" stroke="#C9A961" stroke-width="1.5"/>
  <text x="228.93" y="463.96" class="outer-text" transform="rotate(275.63, 228.93, 463.96)">Varun</text>
  <line x1="218.79" y1="406.93" x2="203.18" y2="485.39" stroke="#C9A961" stroke-width="1.5"/>
  <text x="187.59" y="455.74" class="outer-text" transform="rotate(286.88, 187.59, 455.74)">Asur</text>
  <line x1="188.77" y1="397.82" x2="158.16" y2="471.73" stroke="#C9A961" stroke-width="1.5"/>
  <text x="148.65" y="439.61" class="outer-text" transform="rotate(298.13, 148.65, 439.61)">Shosha</text>
  <line x1="161.11" y1="383.04" x2="116.66" y2="449.55" stroke="#C9A961" stroke-width="1.5"/>
  <text x="120.00" y="410.00" class="outer-text" transform="rotate(309.38, 120.00, 410.00)">Papyakshma</text>
  <line x1="136.86" y1="363.14" x2="80.29" y2="419.71" stroke="#C9A961" stroke-width="1.5"/>
  <text x="83.80" y="386.39" class="outer-text" transform="rotate(320.63, 83.80, 386.39)">Roga</text>
  <line x1="116.96" y1="338.89" x2="50.45" y2="383.34" stroke="#C9A961" stroke-width="1.5"/>
  <text x="60.39" y="351.35" class="outer-text" transform="rotate(331.88, 60.39, 351.35)">Naga</text>
  <line x1="102.18" y1="311.23" x2="28.27" y2="341.84" stroke="#C9A961" stroke-width="1.5"/>
  <text x="44.26" y="312.41" class="outer-text" transform="rotate(343.13, 44.26, 312.41)">Mukhya</text>
  <line x1="93.07" y1="281.21" x2="14.61" y2="296.82" stroke="#C9A961" stroke-width="1.5"/>
  <text x="36.04" y="271.07" class="outer-text" transform="rotate(354.38, 36.04, 271.07)">Bhallat</text>
  <line x1="90.00" y1="250.00" x2="10.00" y2="250.00" stroke="#C9A961" stroke-width="1.5"/>
  <text x="36.04" y="228.93" class="outer-text" transform="rotate(185.63, 36.04, 228.93)">Soma</text>
  <line x1="93.07" y1="218.79" x2="14.61" y2="203.18" stroke="#C9A961" stroke-width="1.5"/>
  <text x="44.26" y="187.59" class="outer-text" transform="rotate(196.88, 44.26, 187.59)">Bhujaga</text>
  <line x1="102.18" y1="188.77" x2="28.27" y2="158.16" stroke="#C9A961" stroke-width="1.5"/>
  <text x="60.39" y="148.65" class="outer-text" transform="rotate(208.13, 60.39, 148.65)">Aditi</text>
  <line x1="116.96" y1="161.11" x2="50.45" y2="116.66" stroke="#C9A961" stroke-width="1.5"/>
  <text x="83.80" y="113.61" class="outer-text" transform="rotate(219.38, 83.80, 113.61)">Diti</text>
  <line x1="136.86" y1="136.86" x2="80.29" y2="80.29" stroke="#C9A961" stroke-width="1.5"/>
  <text x="113.61" y="83.80" class="outer-text" transform="rotate(230.63, 113.61, 83.80)">Shikhi</text>
  <line x1="161.11" y1="116.96" x2="116.66" y2="50.45" stroke="#C9A961" stroke-width="1.5"/>
  <text x="148.65" y="60.39" class="outer-text" transform="rotate(241.88, 148.65, 60.39)">Parjanya</text>
  <line x1="188.77" y1="102.18" x2="158.16" y2="28.27" stroke="#C9A961" stroke-width="1.5"/>
  <text x="187.59" y="44.26" class="outer-text" transform="rotate(253.13, 187.59, 44.26)">Jayant</text>
  <line x1="218.79" y1="93.07" x2="203.18" y2="14.61" stroke="#C9A961" stroke-width="1.5"/>
  <text x="228.93" y="36.04" class="outer-text" transform="rotate(264.38, 228.93, 36.04)">Indra</text>
  <line x1="250.00" y1="150.00" x2="250.00" y2="90.00" stroke="#C9A961" stroke-width="1.5"/>
  <line x1="320.71" y1="179.29" x2="363.14" y2="136.86" stroke="#C9A961" stroke-width="1.5"/>
  <line x1="350.00" y1="250.00" x2="410.00" y2="250.00" stroke="#C9A961" stroke-width="1.5"/>
  <line x1="320.71" y1="320.71" x2="363.14" y2="363.14" stroke="#C9A961" stroke-width="1.5"/>
  <line x1="250.00" y1="350.00" x2="250.00" y2="410.00" stroke="#C9A961" stroke-width="1.5"/>
  <line x1="179.29" y1="320.71" x2="136.86" y2="363.14" stroke="#C9A961" stroke-width="1.5"/>
  <line x1="150.00" y1="250.00" x2="90.00" y2="250.00" stroke="#C9A961" stroke-width="1.5"/>
  <line x1="179.29" y1="179.29" x2="136.86" y2="136.86" stroke="#C9A961" stroke-width="1.5"/>
  <text x="299.75" y="129.90" class="inner-text">Aapha Vasta</text>
  <text x="372.16" y="205.54" class="inner-text">Airyama</text>
  <text x="367.82" y="304.94" class="inner-text">Savitra</text>
  <text x="299.75" y="370.10" class="inner-text">Bram</text>
  <text x="200.25" y="370.10" class="inner-text">Vivasvam</text>
  <text x="132.18" y="304.94" class="inner-text">Indra</text>
  <text x="127.84" y="205.54" class="inner-text">Jaya</text>
  <text x="200.25" y="129.90" class="inner-text">Rudra Jaya</text>
  <line x1="250" y1="10" x2="250" y2="490" stroke="url(#goldGrad)" stroke-width="3"/>
  <line x1="10" y1="250" x2="490" y2="250" stroke="#C9A961" stroke-width="1.5"/>
  
  <!-- Compass needle -->
  <g filter="url(#dropShadow)">
    <!-- North pointer -->
    <path d="M 250 250 L 242 260 L 250 120 L 258 260 Z" fill="url(#needleGrad)" stroke="#CC8800" stroke-width="1"/>
    
    <!-- South pointer -->
    <path d="M 250 250 L 242 240 L 250 380 L 258 240 Z" fill="#FFFFFF" stroke="#D4AF37" stroke-width="1" opacity="0.9"/>
  </g>
  
  <!-- Center pivot -->
  <circle cx="250" cy="250" r="20" fill="url(#goldGrad)" filter="url(#dropShadow)"/>
  <circle cx="250" cy="250" r="18" fill="#FFFEF9"/>
  <circle cx="250" cy="250" r="14" fill="url(#goldGrad)"/>
  <circle cx="250" cy="250" r="12" fill="#FFA500"/>
  <circle cx="250" cy="250" r="8" fill="#FFD600"/>
  <circle cx="248" cy="248" r="3" fill="#FFFEF9" opacity="0.8"/>
  
  <!-- Cardinal direction labels -->
  <text x="250" y="25" class="cardinal-text">N</text>
  <text x="250" y="480" class="cardinal-text">S</text>
</svg>